<svg width="36" height="31" viewBox="0 0 36 31" fill="none" xmlns="http://www.w3.org/2000/svg">
<path d="M33.4243 8.4043C33.8431 8.27718 34.2824 8.29888 34.7114 8.47754L34.7778 8.50488L34.8374 8.54492C35.4065 8.92256 35.5908 9.62868 35.6509 10.2451C35.7158 10.9124 35.6606 11.7469 35.5151 12.6963C35.2228 14.6043 34.542 17.1292 33.5396 20.0293L33.4888 20.1758L33.3843 20.291L27.7437 26.4434V29.6016C27.7437 30.0157 27.4078 30.3515 26.9937 30.3516C26.5795 30.3515 26.2437 30.0158 26.2437 29.6016V25.8604L26.4409 25.6455L32.1724 19.3926C33.1321 16.5975 33.7644 14.2212 34.0327 12.4697C34.1698 11.5746 34.2063 10.8789 34.1587 10.3896C34.1256 10.0508 34.0596 9.89414 34.0249 9.83008C33.9613 9.81883 33.9092 9.82392 33.8599 9.83887C33.7689 9.8665 33.6385 9.93981 33.4751 10.1055C33.1378 10.4474 32.7966 11.0417 32.4751 11.8096C31.84 13.3265 31.4043 15.2173 31.1743 16.2344C30.8589 17.6292 29.6787 18.2901 28.7915 18.5967C28.3312 18.7557 27.8937 18.841 27.5747 18.8867C27.4594 18.9033 27.3574 18.9118 27.2739 18.9199C26.8633 19.2307 26.6356 19.4232 26.5063 19.5508C26.4464 19.6593 26.385 19.7688 26.3247 19.8789L24.9302 19.377C24.9529 19.259 24.9921 19.1175 25.0757 18.9619C25.1305 18.86 25.1999 18.7675 25.2759 18.6768C25.9414 17.4753 26.4947 16.5149 26.8228 15.7539C27.0086 15.3229 27.0809 15.043 27.0874 14.877C27.0883 14.8536 27.0865 14.8359 27.0854 14.8232C27.0106 14.7813 26.9638 14.7775 26.9312 14.7793C26.8823 14.782 26.7916 14.8026 26.646 14.8936C26.3318 15.09 25.9494 15.4903 25.4526 16.1104C24.5279 17.2647 23.3104 19.0552 21.7368 20.5312C21.3035 21.1928 21.0976 21.6232 20.8442 22.543V29.0713C20.844 29.4853 20.5083 29.8213 20.0942 29.8213C19.6803 29.8211 19.3445 29.4852 19.3442 29.0713V22.3379L19.3706 22.2422C19.6858 21.073 19.9628 20.4925 20.5308 19.6348L20.5806 19.5596L20.647 19.499L20.9233 19.2354C22.2828 17.9074 23.3054 16.3918 24.2827 15.1719C24.7765 14.5555 25.2976 13.967 25.8511 13.6211C26.1392 13.4411 26.4741 13.3021 26.8481 13.2812C27.2339 13.2599 27.5993 13.3683 27.9302 13.5811L27.937 13.5859C28.4419 13.9193 28.6058 14.4398 28.5864 14.9365C28.5686 15.3881 28.4031 15.8759 28.1997 16.3477C28.0693 16.6502 27.9032 16.9811 27.7173 17.3369C27.8998 17.2985 28.1004 17.2485 28.3022 17.1787C29.0255 16.9288 29.5702 16.5278 29.7114 15.9033C29.9381 14.9008 30.3983 12.8859 31.0913 11.2305C31.4339 10.4123 31.8649 9.60311 32.4077 9.05273C32.6843 8.77232 33.0214 8.52662 33.4243 8.4043ZM0.966309 8.38086C1.39524 8.20222 1.83471 8.18066 2.25342 8.30762C2.65615 8.4299 2.99345 8.67576 3.27002 8.95605C3.81281 9.50638 4.24388 10.3157 4.58643 11.1338C5.27944 12.7891 5.7396 14.804 5.96631 15.8066C6.10748 16.4309 6.6525 16.8321 7.37549 17.082C7.57717 17.1517 7.77806 17.2019 7.96045 17.2402C7.77461 16.8845 7.60842 16.5534 7.47803 16.251C7.2747 15.7793 7.1091 15.2913 7.09131 14.8398C7.07193 14.3432 7.23604 13.8226 7.74072 13.4893L7.74756 13.4844C8.0783 13.2716 8.44397 13.1633 8.82959 13.1846C9.2035 13.2053 9.53863 13.3445 9.82666 13.5244C10.38 13.8703 10.9013 14.459 11.395 15.0752C12.3723 16.295 13.3951 17.8108 14.7544 19.1387L15.0308 19.4023L15.0972 19.4629L15.147 19.5381C15.7149 20.3958 15.9919 20.9765 16.3071 22.1455L16.3335 22.2412V28.9746C16.3333 29.3885 15.9974 29.7244 15.5835 29.7246C15.1697 29.7243 14.8337 29.3885 14.8335 28.9746V22.4463C14.5802 21.5266 14.3742 21.0961 13.9409 20.4346C12.3675 18.9586 11.1498 17.1679 10.2251 16.0137C9.72847 15.3938 9.3459 14.9932 9.03174 14.7969C8.88635 14.7061 8.79533 14.6853 8.74658 14.6826C8.71398 14.6809 8.66684 14.6848 8.59229 14.7266C8.59126 14.7392 8.58946 14.757 8.59033 14.7803C8.59684 14.9462 8.66925 15.2263 8.85498 15.6572C9.18305 16.4181 9.73642 17.3787 10.4019 18.5801C10.4778 18.6707 10.5472 18.7634 10.6021 18.8652C10.6856 19.0208 10.7248 19.1624 10.7476 19.2803L9.35303 19.7822C9.29279 19.6722 9.23133 19.5626 9.17139 19.4541C9.04206 19.3266 8.81416 19.1338 8.40381 18.8232C8.32037 18.8151 8.21816 18.8065 8.10303 18.79C7.78409 18.7443 7.34634 18.6589 6.88623 18.5C5.99907 18.1933 4.81877 17.5323 4.50342 16.1377C4.27342 15.1206 3.83769 13.2298 3.20264 11.7129C2.88116 10.9451 2.53991 10.3507 2.20264 10.0088C2.03933 9.84333 1.90881 9.7698 1.81787 9.74219C1.76871 9.72736 1.71623 9.72216 1.65283 9.7334C1.61814 9.79752 1.55209 9.95424 1.51904 10.293C1.47142 10.7822 1.50792 11.478 1.64502 12.373C1.91337 14.1245 2.54565 16.5009 3.50537 19.2959L9.23682 25.5488L9.43408 25.7637V29.5049C9.43408 29.9191 9.0983 30.2549 8.68408 30.2549C8.27017 30.2545 7.93408 29.9189 7.93408 29.5049V26.3467L2.29346 20.1943L2.18896 20.0791L2.13818 19.9326C1.13581 17.0326 0.45489 14.5075 0.162598 12.5996C0.0171837 11.6502 -0.0380604 10.8157 0.0268555 10.1484C0.0868994 9.53208 0.271383 8.82593 0.840332 8.44824L0.899902 8.4082L0.966309 8.38086ZM18.6489 0.00195312C18.6569 0.00245952 18.6653 0.00313966 18.6733 0.00390625C18.6745 0.00402027 18.676 0.003835 18.6772 0.00390625C18.6808 0.00425785 18.6845 0.00541901 18.688 0.00585938C18.7855 0.0170777 18.8768 0.0466731 18.9585 0.0908203C19.171 0.205901 19.3244 0.421204 19.3491 0.679688C19.5201 2.47069 19.947 3.44103 20.5581 4.01172C21.1747 4.58737 22.119 4.89013 23.6567 5.00293C24.0137 5.0291 24.3024 5.30398 24.3462 5.65918C24.3899 6.0145 24.1765 6.35092 23.8364 6.46289C22.3278 6.95969 21.2764 7.39132 20.5601 8.01562C19.8933 8.59691 19.4598 9.4012 19.3501 10.8096C19.3495 10.8171 19.347 10.8245 19.3462 10.832C19.3455 10.8382 19.3451 10.8444 19.3442 10.8506C19.3387 10.8921 19.3288 10.9318 19.3169 10.9707C19.3081 10.9993 19.2967 11.0266 19.2847 11.0537C19.2771 11.0708 19.27 11.0881 19.2612 11.1045C19.2495 11.1262 19.2359 11.1466 19.2222 11.167C19.2079 11.1882 19.1945 11.2099 19.1782 11.2295L19.0806 11.3271C19.061 11.3434 19.0393 11.3568 19.0181 11.3711C18.9977 11.3848 18.9773 11.3985 18.9556 11.4102C18.9392 11.4189 18.9219 11.426 18.9048 11.4336C18.8777 11.4456 18.8503 11.457 18.8218 11.4658C18.783 11.4777 18.743 11.4876 18.7017 11.4932C18.6956 11.494 18.6892 11.4945 18.6831 11.4951C18.6757 11.496 18.6681 11.4984 18.6606 11.499C18.6533 11.4996 18.6455 11.4987 18.6382 11.499C18.6263 11.4996 18.6141 11.5 18.6021 11.5C18.5897 11.5 18.5772 11.4996 18.5649 11.499C18.5579 11.4987 18.5505 11.4996 18.5435 11.499C18.5356 11.4984 18.5278 11.496 18.52 11.4951C18.5139 11.4945 18.5075 11.494 18.5015 11.4932C18.4601 11.4876 18.4201 11.4778 18.3813 11.4658C18.3528 11.457 18.3254 11.4457 18.2983 11.4336C18.2813 11.426 18.2639 11.419 18.2476 11.4102C18.2259 11.3985 18.2054 11.3848 18.1851 11.3711C18.1639 11.3568 18.1421 11.3434 18.1226 11.3271L18.0249 11.2295C18.0087 11.2099 17.9952 11.1882 17.981 11.167C17.9673 11.1466 17.9535 11.1262 17.9419 11.1045C17.9332 11.0882 17.927 11.0707 17.9194 11.0537C17.9073 11.0265 17.8951 10.9994 17.8862 10.9707C17.8743 10.9319 17.8644 10.892 17.8589 10.8506C17.8581 10.8444 17.8576 10.8382 17.8569 10.832C17.8561 10.8246 17.8546 10.8171 17.854 10.8096C17.7394 9.3388 17.3982 8.5354 16.8501 7.97461C16.2698 7.38104 15.3653 6.95604 13.8677 6.46289C13.5278 6.35083 13.3142 6.0144 13.3579 5.65918C13.4017 5.30405 13.6905 5.02923 14.0474 5.00293C15.5868 4.89004 16.3703 4.58843 16.8521 4.05664C17.3589 3.49692 17.6787 2.52713 17.855 0.679688C17.8796 0.421282 18.0332 0.205935 18.2456 0.0908203C18.327 0.0467946 18.418 0.0171963 18.5151 0.00585938C18.5186 0.00545269 18.5224 0.00430261 18.5259 0.00390625C18.5274 0.00375202 18.5292 0.00400156 18.5308 0.00390625C18.5385 0.00316814 18.5465 0.00245389 18.5542 0.00195312C18.568 0.00108376 18.5822 0.000106732 18.5962 0H18.6079C18.6216 9.24957e-05 18.6354 0.00111908 18.6489 0.00195312ZM18.6655 3.9541C18.4799 4.37524 18.2512 4.7456 17.9634 5.06348C17.5934 5.47185 17.1525 5.76668 16.647 5.98242C17.1331 6.24924 17.561 6.55514 17.9233 6.92578C18.2229 7.23227 18.4665 7.57259 18.6646 7.95117C18.9123 7.55138 19.2149 7.19843 19.5747 6.88477C19.9784 6.53289 20.4449 6.24212 20.9575 5.98438C20.4253 5.77567 19.9476 5.49301 19.5347 5.10742C19.185 4.78087 18.8991 4.39649 18.6655 3.9541Z" fill="#D8B77A"/>
</svg>
