<svg width="50" height="94" viewBox="0 0 50 94" fill="none" xmlns="http://www.w3.org/2000/svg">
<path d="M9.55879 10.2231C9.71465 9.83935 10.1526 9.6542 10.5363 9.80997C10.9199 9.96594 11.1043 10.4038 10.9484 10.7875C10.398 12.1427 10.0251 13.1455 9.85078 14.2494C9.6861 15.2928 9.69541 16.4656 9.95528 18.1342C11.0297 19.134 11.7509 20.0898 12.2785 21.2133C12.8293 22.3864 13.1539 23.7067 13.4885 25.3559C13.5146 25.4845 13.5065 25.6181 13.465 25.7426L12.9758 27.2074L13.9748 26.809L14.092 26.7729C14.3674 26.712 14.6585 26.811 14.8391 27.0365L16.6145 29.2553H17.7531C18.1673 29.2553 18.5031 29.5911 18.5031 30.0053V30.7553H18.7531C19.1673 30.7553 19.5031 31.0911 19.5031 31.5053V32.5736C20.6047 32.3398 21.378 32.1985 22.0344 32.0043C22.7899 31.7808 23.2522 31.519 23.6848 31.016C23.8255 30.8524 24.0305 30.7575 24.2463 30.7553C24.462 30.7532 24.6687 30.8446 24.8127 31.0053C25.6835 31.9776 26.2676 32.7846 26.6779 33.6342C27.0891 34.4855 27.3057 35.3394 27.4914 36.3725C27.5385 36.6343 27.4434 36.9015 27.2414 37.0746L23.9934 39.8578C23.8969 43.4987 23.5411 45.7399 21.9514 49.7797C21.9104 49.8838 21.8467 49.9779 21.7648 50.0541C18.5279 53.0712 17.259 55.293 17.2229 57.4135C17.1877 59.482 18.314 61.6729 20.5588 64.6645L26.5852 63.2748L26.6887 63.2582C26.9308 63.2371 27.1708 63.335 27.3293 63.5248L29.8293 66.5248C29.9719 66.6959 30.0218 66.9113 29.9914 67.1156C30.1618 67.0373 30.314 66.98 30.4504 66.9457C30.5211 66.928 30.6051 66.9111 30.6975 66.9057C31.2166 64.2459 32.2911 58.7245 34.0129 49.8608C34.092 49.4545 34.4855 49.1894 34.8918 49.268C35.2984 49.347 35.5644 49.7403 35.4855 50.1469C33.522 60.2553 32.4027 66.0193 31.9855 68.1479C31.9209 68.4779 31.644 68.7247 31.3088 68.7514C31.1541 68.7637 30.9649 68.753 30.7756 68.6684C30.6827 68.6268 30.6052 68.5732 30.5402 68.516C30.4539 68.5583 30.3451 68.6146 30.2102 68.6899C28.7121 69.5249 24.9274 72.0937 15.1877 79.1127C14.9027 79.318 14.5136 79.2973 14.2512 79.0639C12.7242 77.7053 11.7402 77.2428 10.9387 77.183C10.4552 77.147 9.97718 77.2525 9.40645 77.4945L10.0852 77.8334C10.3381 77.9598 10.4987 78.2177 10.5002 78.5004C10.5015 78.7831 10.3436 79.0424 10.092 79.1713C8.0096 80.238 6.87158 80.7553 5.58516 81.2777L6.78047 82.474C6.921 82.6146 7.00014 82.8055 7.0002 83.0043V84.6938L8.23848 85.933L9.35371 86.769C9.55243 86.8256 9.75936 86.8753 9.97383 86.9223L16.3186 82.394L16.4221 82.3315C16.4583 82.3136 16.4966 82.2984 16.5354 82.2865L34.3352 76.8451L40.093 70.6127L46.0412 52.767C46.1722 52.3742 46.5976 52.1616 46.9904 52.2924C47.3833 52.4234 47.5959 52.8487 47.465 53.2416L41.465 71.2416C41.4314 71.3424 41.3769 71.4351 41.3049 71.5131L35.3 78.0131C35.2099 78.1106 35.0949 78.1823 34.968 78.2211L19.4943 82.9496C19.5134 83.2139 19.3956 83.4802 19.1574 83.6342C17.3961 84.7733 16.341 85.8128 15.6682 87.1108C14.9863 88.4262 14.6548 90.0857 14.4982 92.5512C14.472 92.9646 14.1157 93.2786 13.7023 93.2524C13.2892 93.2258 12.9759 92.8697 13.0022 92.4565C13.1626 89.9292 13.5085 88.017 14.3361 86.4203C14.6066 85.8986 14.9248 85.419 15.2941 84.9672L12.1408 87.2182C12.3481 87.2326 12.5613 87.2454 12.7805 87.2543C13.1942 87.2712 13.516 87.6208 13.4992 88.0346C13.4823 88.4483 13.1337 88.7701 12.7199 88.7533C11.8547 88.718 11.0573 88.6403 10.3205 88.517L10.1857 88.6147C9.91983 88.8043 9.56137 88.7998 9.3 88.6039L8.66035 88.1244C7.35431 87.713 6.2701 87.0897 5.34688 86.1967C3.63965 84.5451 2.58005 82.0699 1.53438 78.7279C1.49107 78.5894 1.48926 78.441 1.52852 78.3012C1.86675 77.0969 1.91077 76.1509 1.6916 75.143C1.46574 74.1048 0.951984 72.9578 0.0900416 71.3598C0.0284346 71.2453 -0.00280551 71.1167 0.000197893 70.9867C0.115263 66.0254 0.33193 62.4795 0.863479 59.8432C1.40004 57.1823 2.27024 55.3828 3.72774 53.9652L3.78731 53.9135C3.93196 53.8 4.11468 53.7431 4.3 53.7553C4.56251 53.7726 4.81941 53.793 5.07051 53.8149C5.05029 53.7708 5.0348 53.7254 5.02364 53.6791C4.69047 53.2581 4.24684 52.7003 3.66426 51.9721C1.47666 49.2374 0.974065 44.9599 2.16426 41.391C3.37232 37.769 6.37169 34.7544 11.2541 34.7543C13.6521 34.7543 15.4244 35.4241 16.7043 36.4906C17.9742 37.5492 18.6943 38.9441 19.0969 40.2885C19.499 41.6315 19.5956 42.9603 19.5949 43.9418C19.5946 44.4348 19.5693 44.847 19.5441 45.1381C19.5316 45.2837 19.5197 45.3998 19.51 45.4809C19.5065 45.5092 19.5028 45.5335 19.5002 45.5531V47.0033C19.5002 47.135 19.4631 47.2571 19.4035 47.3647L20.7189 48.4174C20.7586 48.4491 20.794 48.4845 20.8254 48.5219C22.1548 44.991 22.4284 42.9508 22.5041 39.4887L22.51 39.4096C22.5335 39.2265 22.6243 39.0573 22.7658 38.936L25.9328 36.2211C25.778 35.4545 25.6044 34.8602 25.3273 34.2865C25.0743 33.7625 24.7244 33.2312 24.1975 32.5912C23.6874 32.993 23.1249 33.2461 22.4602 33.4428C21.5827 33.7024 20.3941 33.902 18.9201 34.2367C18.6977 34.2872 18.4636 34.2335 18.2854 34.0912C18.1073 33.949 18.0032 33.7332 18.0031 33.5053V32.2553H17.7531C17.3392 32.2549 17.0031 31.9193 17.0031 31.5053V30.7553H16.2531C16.0256 30.7551 15.8104 30.6516 15.6682 30.474L14.0148 28.4076L12.0324 29.2016C11.7614 29.3099 11.4519 29.2513 11.2395 29.0512C11.0271 28.8509 10.9499 28.545 11.0422 28.268L11.9777 25.4594C11.6609 23.9217 11.3697 22.8085 10.9201 21.851C10.4609 20.873 9.82028 20.0233 8.75215 19.0629C8.6258 18.9492 8.54176 18.796 8.51387 18.6283C8.19815 16.7233 8.16395 15.3158 8.36934 14.0151C8.57324 12.7238 9.00776 11.5796 9.55879 10.2231ZM10.6525 8.55705C15.5127 2.01641 22.0402 -1.09993 27.8772 0.350014C33.7188 1.80131 38.4422 7.71499 39.9797 18.2934C40.0555 18.318 40.13 18.3525 40.1975 18.4027C42.9069 20.4212 44.8031 22.111 45.7834 23.9457C46.8034 25.8551 46.7877 27.824 45.9592 30.2465C45.9255 30.345 45.8723 30.4315 45.8068 30.5043C45.8318 30.5322 45.8561 30.5619 45.8772 30.5942C46.5463 31.6187 46.9299 32.5094 46.9035 33.4233C46.877 34.3391 46.4416 35.1269 45.8586 35.9408C45.7787 36.0522 45.6725 36.1316 45.5559 36.184C46.64 37.0703 47.4991 38.1137 48.1496 39.3168C49.5202 41.8517 49.9253 44.997 49.7453 48.6235C49.3896 55.7881 46.7119 65.2464 44.0432 76.4291C45.5022 79.5754 46.4246 82.0619 46.9514 84.5151C47.4924 87.0348 47.6114 89.484 47.5031 92.5307C47.4884 92.9445 47.1406 93.2679 46.7268 93.2533C46.3129 93.2385 45.9884 92.8909 46.0031 92.477C46.1088 89.501 45.9904 87.1863 45.4846 84.8305C44.9778 82.4702 44.0752 80.0324 42.5744 76.8217C42.5029 76.6684 42.4845 76.495 42.5236 76.3305C45.2441 64.9039 47.898 55.5841 48.2473 48.5492C48.421 45.0497 48.0146 42.2213 46.8303 40.0307C45.703 37.9459 43.8256 36.3587 40.8615 35.3334C40.1266 35.8234 39.5235 36.2261 38.9201 36.6283C38.2345 37.0854 37.5486 37.5426 36.6701 38.1283C36.5153 38.2316 36.3268 38.2739 36.1428 38.2465C34.1932 37.9559 32.7828 37.3102 31.6027 36.1361C30.4581 34.9972 29.5744 33.4007 28.5783 31.3295C28.5367 31.2428 28.5122 31.1482 28.5061 31.0522C28.3635 28.8271 27.9243 27.3943 26.9494 26.2729C25.9517 25.1254 24.3063 24.201 21.5041 23.2113C21.1886 23.0996 20.9846 22.7925 21.0051 22.4584C21.0649 21.4834 21.0609 20.7139 20.968 20.1088C20.8757 19.5085 20.7043 19.1265 20.4758 18.8705C20.0249 18.366 19.0703 18.0569 16.8186 18.2514C16.6899 18.2624 16.5601 18.2396 16.4426 18.186C14.4035 17.2558 13.1029 16.4648 12.2854 15.5854C11.4268 14.6617 11.1525 13.6994 11.01 12.601C10.9568 12.1904 11.2469 11.8136 11.6574 11.7602C12.0681 11.7069 12.4448 11.997 12.4982 12.4076C12.6199 13.3455 12.8215 13.9598 13.384 14.5649C13.9704 15.1955 14.9951 15.8631 16.8938 16.7406C19.0448 16.576 20.6414 16.8039 21.5949 17.8715C22.0833 18.4184 22.3322 19.1118 22.4504 19.8813C22.5455 20.5006 22.5588 21.2059 22.5285 21.9867C25.1004 22.9358 26.8958 23.926 28.0813 25.2895C29.3404 26.7379 29.8278 28.5103 29.9904 30.8031C30.9591 32.8069 31.7358 34.1526 32.6604 35.0727C33.5174 35.9254 34.5396 36.4469 36.0822 36.7162C36.8458 36.2071 37.4667 35.794 38.0871 35.3803C38.7727 34.9232 39.4587 34.466 40.3371 33.8803L40.4113 33.8363C40.5872 33.7462 40.7932 33.7292 40.9836 33.7904C42.3256 34.2234 43.4956 34.7688 44.507 35.4213C44.5207 35.2978 44.5623 35.175 44.6398 35.0668C45.1842 34.3067 45.3914 33.8284 45.4045 33.3803C45.4175 32.9302 45.2375 32.3579 44.6213 31.4145C44.4311 31.123 44.4706 30.7489 44.6936 30.5024C44.5186 30.3068 44.4483 30.0271 44.5393 29.7611C45.2792 27.5979 45.2261 26.0865 44.4602 24.6527C43.6543 23.1445 42.0154 21.627 39.301 19.6049C39.1666 19.5046 39.0769 19.3674 39.0324 19.2182C38.7648 19.1348 38.5543 18.9067 38.5119 18.6108C37.0318 8.25527 32.5257 3.05095 27.5158 1.80607C22.4817 0.555575 16.509 3.18909 11.8557 9.45158C11.6087 9.78397 11.1393 9.85373 10.8068 9.60685C10.4746 9.35976 10.4055 8.88945 10.6525 8.55705ZM4.46504 82.2787C4.78996 82.9615 5.13115 83.5554 5.5002 84.0727V83.3139L4.46504 82.2787ZM4.54024 55.2768C3.49431 56.3896 2.79807 57.8394 2.33418 60.1401C1.83838 62.5991 1.62138 65.9664 1.50508 70.8266C2.32479 72.3601 2.89396 73.6126 3.15742 74.8236C3.42239 76.0418 3.36801 77.1784 3.02949 78.4809C3.25832 79.2035 3.48472 79.8691 3.71309 80.4818C3.78681 80.4059 3.87616 80.3447 3.97774 80.3051C5.41086 79.7463 6.38793 79.3406 8.07637 78.5063L7.41426 78.1752C7.16735 78.0517 7.00737 77.8018 6.99922 77.5258C6.99124 77.2499 7.13602 76.9917 7.3752 76.8539C8.59607 76.1509 9.74503 75.5898 11.05 75.6869C12.2303 75.775 13.4011 76.3877 14.7912 77.5502C17.0989 75.8884 19.0657 74.4795 20.7443 73.2885C15.4987 73.4345 11.9867 72.9217 9.58223 71.4545C6.96179 69.8552 5.80806 67.2247 5.01778 63.6664C4.92817 63.2623 5.18314 62.8609 5.58711 62.7709C5.99126 62.6812 6.39253 62.9363 6.48262 63.3402C7.24812 66.7871 8.27993 68.9026 10.3635 70.1742C12.5077 71.4827 15.9166 71.9986 21.7229 71.7543C22.008 71.7424 22.2593 71.8933 22.3957 72.1225C25.8179 69.7127 27.796 68.3883 28.9523 67.6889C28.8498 67.6438 28.7546 67.5776 28.6779 67.4858L26.4719 64.8393L20.8957 66.1254C20.9255 66.1763 20.9514 66.2305 20.9689 66.2895C21.0871 66.6864 20.861 67.1039 20.4641 67.2221C18.7771 67.7243 17.3611 67.7934 15.9865 67.141C14.6643 66.5133 13.4929 65.2659 12.1477 63.4496C12.0504 63.3182 11.9983 63.1581 12.0002 62.9945C12.0354 59.8735 11.5486 58.1375 10.4729 57.0854C9.41322 56.0493 7.61827 55.5083 4.54024 55.2768ZM11.2541 36.2543C7.13317 36.2544 4.63016 38.7383 3.58711 41.8656C2.5264 45.0463 3.02403 48.7692 4.83614 51.0346C5.83583 52.2842 6.43224 53.0379 6.76387 53.4643C6.9271 53.6741 7.03403 53.8154 7.09297 53.8979C7.10783 53.9187 7.12454 53.9426 7.13985 53.9662C7.14735 53.9778 7.15917 53.9959 7.1711 54.017C7.17507 54.024 7.18578 54.0518 7.20235 54.0893C9.05112 54.4247 10.4881 55.0024 11.5217 56.0131C13.0241 57.4824 13.5078 59.6946 13.5002 62.7504C14.7564 64.4213 15.7033 65.3455 16.6301 65.7856C17.4513 66.1753 18.3428 66.2222 19.6115 65.8998C17.2035 62.7415 15.6769 60.0962 15.7229 57.3881C15.7376 56.5229 15.9117 55.6746 16.2453 54.8227C15.443 55.1512 14.6887 55.2857 13.885 55.102C13.0165 54.9034 12.2001 54.356 11.2727 53.5785C10.9554 53.3124 10.9129 52.8393 11.1789 52.5219C11.4449 52.2047 11.9181 52.1635 12.2355 52.4291C13.1326 53.1811 13.7188 53.5256 14.2189 53.6401C14.6781 53.745 15.1679 53.6775 15.9348 53.3227C16.2642 53.1702 16.6478 53.2773 16.8547 53.559C17.5618 52.32 18.6002 51.0528 19.9719 49.6967C19.9054 49.67 19.8402 49.6363 19.7814 49.5893L17.2814 47.5893C17.033 47.3903 16.9369 47.0557 17.0422 46.7553C17.1476 46.4549 17.4318 46.2534 17.7502 46.2533H18.0002V45.5033C18.0002 45.4661 18.0035 45.4288 18.009 45.392C18.009 45.3914 18.0088 45.3901 18.009 45.3891C18.0094 45.386 18.01 45.3806 18.0109 45.3735C18.013 45.3582 18.0168 45.3337 18.0207 45.3012C18.0286 45.2358 18.039 45.1367 18.05 45.0092C18.0721 44.7537 18.0946 44.3846 18.0949 43.9408C18.0956 43.0476 18.0066 41.8757 17.6604 40.7192C17.3144 39.564 16.7227 38.4582 15.7434 37.642C14.7736 36.8341 13.3575 36.2543 11.2541 36.2543Z" fill="#686868"/>
</svg>
